<?xml version="1.0" encoding="UTF-8" standalone="no"?>
<svg
   xmlns:dc="http://purl.org/dc/elements/1.1/"
   xmlns:cc="http://creativecommons.org/ns#"
   xmlns:rdf="http://www.w3.org/1999/02/22-rdf-syntax-ns#"
   xmlns:svg="http://www.w3.org/2000/svg"
   xmlns="http://www.w3.org/2000/svg"
   xmlns:xlink="http://www.w3.org/1999/xlink"
   id="svg2"
   version="1.1"
   viewBox="0 0 20 20"
   height="20"
   width="20">
  <metadata
     id="metadata23">
    <rdf:RDF>
      <cc:Work
         rdf:about="">
        <dc:format>image/svg+xml</dc:format>
        <dc:type
           rdf:resource="http://purl.org/dc/dcmitype/StillImage" />
        <dc:title>Rectangle 6</dc:title>
      </cc:Work>
    </rdf:RDF>
  </metadata>
  <title
     id="title4">Rectangle 6</title>
  <desc
     id="desc6">Created using Figma</desc>
  <g
     transform="translate(663 -1212)"
     id="Canvas">
    <g
       id="Rectangle 6">
      <mask
         id="mask0_outline_ins">
        <use
           id="use11"
           transform="translate(-663 1212)"
           fill="white"
           xlink:href="#path0_fill" />
      </mask>
      <g
         style="fill:#888888;fill-opacity:1"
         id="g13"
         mask="url(#mask0_outline_ins)">
        <use
           style="fill:#888888;fill-opacity:1"
           id="use15"
           fill="#A3A3A3"
           transform="translate(-663 1212)"
           xlink:href="#path1_stroke_2x" />
      </g>
      <g
         id="Canvas-2"
         transform="translate(20.59322,-50.983051)">
        <g
           style="fill:#223388;fill-opacity:1"
           transform="translate(-20.495806,13.936418)"
           id="Shape">
          <use
             height="100%"
             width="100%"
             y="0"
             x="0"
             style="fill:#223388;fill-opacity:1"
             xlink:href="#path1_fill"
             transform="translate(-659.092,1254.41)"
             id="use4162" />
        </g>
      </g>
    </g>
  </g>
  <defs
     id="defs17">
    <path
       d="M 0 0L 20 0L 20 20L 0 20L 0 0Z"
       fill-rule="evenodd"
       id="path0_fill" />
    <path
       d="M 0 0L 0 -1L -1 -1L -1 0L 0 0ZM 20 0L 21 0L 21 -1L 20 -1L 20 0ZM 20 20L 20 21L 21 21L 21 20L 20 20ZM 0 20L -1 20L -1 21L 0 21L 0 20ZM 0 1L 20 1L 20 -1L 0 -1L 0 1ZM 19 0L 19 20L 21 20L 21 0L 19 0ZM 20 19L 0 19L 0 21L 20 21L 20 19ZM 1 20L 1 0L -1 0L -1 20L 1 20Z"
       id="path1_stroke_2x" />
    <path
       id="path0_fill-4"
       fill-rule="evenodd"
       d="M 0 0L 20 0L 20 20L 0 20L 0 0Z" />
    <path
       id="path1_fill"
       d="M 4.56885 9.17323L 0 4.78815L 1.41685 3.3312L 4.54194 6.31313L 10.7403 0L 12.1836 1.43005L 4.56885 9.17323Z" />
  </defs>
</svg>
