<?xml version="1.0" encoding="UTF-8" standalone="no"?>
<svg
   xmlns:dc="http://purl.org/dc/elements/1.1/"
   xmlns:cc="http://creativecommons.org/ns#"
   xmlns:rdf="http://www.w3.org/1999/02/22-rdf-syntax-ns#"
   xmlns:svg="http://www.w3.org/2000/svg"
   xmlns="http://www.w3.org/2000/svg"
   xmlns:xlink="http://www.w3.org/1999/xlink"
   id="svg2"
   version="1.1"
   viewBox="0 0 20 20"
   height="20"
   width="20">
  <metadata
     id="metadata25">
    <rdf:RDF>
      <cc:Work
         rdf:about="">
        <dc:format>image/svg+xml</dc:format>
        <dc:type
           rdf:resource="http://purl.org/dc/dcmitype/StillImage" />
        <dc:title>Oval 3</dc:title>
      </cc:Work>
    </rdf:RDF>
  </metadata>
  <title
     id="title4">Oval 3</title>
  <desc
     id="desc6">Created using Figma</desc>
  <g
     transform="translate(-2344 -121)"
     id="Canvas">
    <g
       id="Oval 3">
      <use
         height="100%"
         width="100%"
         y="0"
         x="0"
         style="fill:#223388;fill-opacity:1"
         id="use10"
         transform="matrix(0.44915254,0,0,0.44915254,2349.5085,126.50847)"
         xlink:href="#path0_fill" />
      <mask
         id="mask0_outline_ins">
        <use
           id="use13"
           transform="translate(2344 121)"
           fill="white"
           xlink:href="#path0_fill" />
      </mask>
      <g
         id="g15"
         mask="url(#mask0_outline_ins)">
        <use
           style="fill:#888888;fill-opacity:1"
           id="use17"
           fill="#A3A3A3"
           transform="translate(2344 121)"
           xlink:href="#path1_stroke_2x" />
      </g>
    </g>
  </g>
  <defs
     id="defs19">
    <path
       d="M 10 20C 15.5228 20 20 15.5228 20 10C 20 4.47715 15.5228 0 10 0C 4.47715 0 0 4.47715 0 10C 0 15.5228 4.47715 20 10 20Z"
       fill-rule="evenodd"
       id="path0_fill" />
    <path
       d="M 10 21C 16.0751 21 21 16.0751 21 10L 19 10C 19 14.9706 14.9706 19 10 19L 10 21ZM 21 10C 21 3.92487 16.0751 -1 10 -1L 10 1C 14.9706 1 19 5.02944 19 10L 21 10ZM 10 -1C 3.92487 -1 -1 3.92487 -1 10L 1 10C 1 5.02944 5.02944 1 10 1L 10 -1ZM -1 10C -1 16.0751 3.92487 21 10 21L 10 19C 5.02944 19 1 14.9706 1 10L -1 10Z"
       id="path1_stroke_2x" />
  </defs>
</svg>
